<?xml version="1.0" standalone="no"?><!DOCTYPE svg PUBLIC "-//W3C//DTD SVG 1.1//EN" "http://www.w3.org/Graphics/SVG/1.1/DTD/svg11.dtd"><svg t="1556779711140" class="icon" style="" viewBox="0 0 1024 1024" version="1.1" xmlns="http://www.w3.org/2000/svg" p-id="2504" xmlns:xlink="http://www.w3.org/1999/xlink" width="200" height="200"><defs><style type="text/css"></style></defs><path d="M249.777214 466.438385v91.12323l68.180089-45.669837zM484.836187 400.422744v-127.053055L271.638131 415.573874l95.23568 63.63475zM752.361869 415.573874l-213.198056-142.204185V400.422744l117.962376 78.78588zM271.638131 608.426126l213.198056 142.204185v-127.053055l-117.962376-78.78588zM539.163813 623.577256v127.053055l213.198056-142.204185-95.23568-63.63475zM511.891778 447.607694l-96.101459 64.284084 96.101459 64.500528 96.317903-64.500528z" fill="" p-id="2505"></path><path d="M511.891778 0C229.214965 0 0 229.214965 0 511.891778S229.214965 1023.783555 511.891778 1023.783555 1023.783555 794.56859 1023.783555 511.891778C1024 229.214965 794.785035 0 511.891778 0z m316.658634 608.426126c0 1.298668 0 2.380892-0.216445 3.463115 0 0.432889-0.216445 0.865779-0.216444 1.082224-0.216445 0.865779-0.216445 1.515113-0.43289 2.380892-0.216445 0.432889-0.216445 0.865779-0.432889 1.298668l-0.649334 1.948003-0.649335 1.298668c-0.216445 0.649334-0.649334 1.298668-0.865778 1.731558-0.216445 0.432889-0.432889 0.865779-0.865779 1.298668-0.432889 0.649334-0.649334 1.082224-1.082224 1.731558-0.216445 0.432889-0.649334 0.865779-0.865779 1.082224-0.432889 0.432889-0.865779 1.082224-1.298668 1.515113l-1.082224 1.082223c-0.432889 0.432889-1.082224 0.865779-1.515113 1.298669-0.432889 0.216445-0.865779 0.649334-1.298668 0.865779-0.216445 0-0.216445 0.216445-0.43289 0.432889l-289.386599 192.852251c-4.545339 3.030226-9.740013 4.545339-15.151131 4.545339-5.194673 0-10.605792-1.515113-15.15113-4.545339l-289.3866-192.635806c-0.216445 0-0.216445-0.216445-0.432889-0.43289-0.432889-0.216445-0.865779-0.649334-1.298668-0.865779-0.432889-0.432889-1.082224-0.865779-1.515113-1.298668l-1.082224-1.082224c-0.432889-0.432889-0.865779-0.865779-1.298668-1.515113-0.216445-0.432889-0.649334-0.865779-0.865779-1.082223-0.432889-0.432889-0.865779-1.082224-1.082224-1.731558-0.216445-0.432889-0.432889-0.865779-0.865779-1.298668-0.432889-0.649334-0.649334-1.298668-0.865779-1.731558l-0.649334-1.298669-0.649334-1.948002c-0.216445-0.432889-0.216445-0.865779-0.43289-1.298668-0.216445-0.649334-0.432889-1.515113-0.432889-2.380892 0-0.432889-0.216445-0.865779-0.216445-1.082224-0.216445-1.082224-0.216445-2.380892-0.216444-3.463116V415.573874c0-1.298668 0-2.380892 0.216444-3.463115 0-0.432889 0.216445-0.865779 0.216445-1.082224 0.216445-0.865779 0.216445-1.515113 0.432889-2.380892 0.216445-0.432889 0.216445-0.865779 0.43289-1.298668l0.649334-1.948003 0.649334-1.298668c0.216445-0.649334 0.649334-1.298668 0.865779-1.731558 0.216445-0.432889 0.432889-0.865779 0.865779-1.298668 0.432889-0.649334 0.649334-1.082224 1.082224-1.731558 0.216445-0.432889 0.649334-0.865779 0.865779-1.082224 0.432889-0.432889 0.865779-1.082224 1.298668-1.515113l1.082224-1.082223c0.432889-0.432889 1.082224-0.865779 1.515113-1.298669 0.432889-0.216445 0.865779-0.649334 1.298668-0.865779 0.216445 0 0.216445-0.216445 0.432889-0.432889l289.3866-192.852251c9.090679-6.060452 20.995138-6.060452 30.085816 0l289.3866 192.852251c0.216445 0 0.216445 0.216445 0.432889 0.432889 0.432889 0.216445 0.865779 0.649334 1.298668 0.865779 0.432889 0.432889 1.082224 0.865779 1.515113 1.298669l1.082224 1.082223c0.432889 0.432889 0.865779 0.865779 1.298668 1.515113 0.432889 0.432889 0.649334 0.865779 0.865779 1.082224 0.432889 0.432889 0.865779 1.082224 1.082224 1.731558 0.216445 0.432889 0.432889 0.865779 0.865779 1.298668 0.432889 0.649334 0.649334 1.082224 0.865779 1.731558l0.649334 1.298668 0.649334 1.948003c0.216445 0.432889 0.216445 0.865779 0.43289 1.298668 0.216445 0.649334 0.432889 1.515113 0.432889 2.380892 0 0.432889 0.216445 0.865779 0.216445 1.082224 0.216445 1.082224 0.216445 2.380892 0.216444 3.463115v192.852252z" fill="" p-id="2506"></path><path d="M774.222786 557.561615v-91.12323l-68.180089 45.453393z" fill="" p-id="2507"></path></svg>