<?xml version="1.0" standalone="no"?><!DOCTYPE svg PUBLIC "-//W3C//DTD SVG 1.1//EN" "http://www.w3.org/Graphics/SVG/1.1/DTD/svg11.dtd"><svg t="1556946959834" class="icon" style="" viewBox="0 0 1029 1024" version="1.1" xmlns="http://www.w3.org/2000/svg" p-id="1724" data-spm-anchor-id="a313x.7781069.0.i3" xmlns:xlink="http://www.w3.org/1999/xlink" width="200.9765625" height="200"><defs><style type="text/css"></style></defs><path d="M425.538024 804.40930367c-1.038949-1.038949-10.152798-2.396808-20.253275-3.014695-28.054112-1.724107-113.120856-18.319883-131.508009-25.662287-4.277878-1.704175-19.6902-6.941275-34.247942-11.63274-14.560234-4.688973-29.237567-10.429353-32.613528-12.751416-3.380944-2.322063-8.319066-4.220574-10.974988-4.220574-2.655922 0-19.510813-7.868107-37.456973-17.485236s-35.77273-19.077294-39.612107-21.020653c-3.841869-1.945849-6.993596-4.589314-7.008545-5.874919-0.012457-1.283114-1.440078-2.334521-3.171659-2.334521-10.481674 0-51.892633-25.310988-61.143514-37.372263-1.970764-2.56872-6.672195-8.17456-10.444302-12.457421-10.379523-11.779737-23.594355-39.699309-29.230092-61.761401-5.854988-22.921655-6.59745-58.691893-1.479942-71.231533 14.425693-35.339212 17.963601-40.362044 36.93127-52.395912 11.737382-7.449538 17.300866-8.884633 34.257908-8.852244 24.421528 0.04983 43.563601 8.76255 66.781742 30.403582 11.719942 10.922667 17.667114 14.276204 24.914842 14.037022 15.793518-0.513246 24.466375-4.155796 25.403173-10.663553 2.723192-18.972652 5.112526-26.337479 10.700924-33.004691 20.806384-24.820165 30.555562-30.328837 58.280798-32.944895 16.224545-1.529771 19.465966-2.797937 19.465966-7.613976 0-3.176642-1.402706-5.780243-3.114355-5.780243-1.714141 0-3.114355-1.494891-3.114355-3.328623 0-1.833732-4.367572-9.681908-9.706823-17.440389-13.695689-19.906959-37.389703-71.789625-49.540671-108.474238-5.670618-17.128954-11.388574-33.946472-12.706569-37.372263-4.210608-10.970005-11.876905-40.225012-10.818025-41.283893 0.563075-0.563075 8.002647 7.860633 16.535981 18.716029 17.841518 22.704895 79.087182 83.365061 102.051192 101.077022 51.957411 40.075523 92.852633 60.774774 161.958929 81.974813 22.206599 6.811718 60.645217 9.801499 99.64691 7.751007 103.563523-5.443893 187.832993-47.482706 250.959728-125.202063 21.842842-26.890589 52.505538-74.13162 69.881148-107.657032l9.280779-17.903805 2.491484 39.706783c1.367825 21.837859 1.868613 64.933061 1.116185 95.765178-1.200895 48.977596-2.351961 59.048175-9.108866 79.710053-12.258102 37.471922-19.234258 46.184642-93.672331 116.98764-16.284341 15.489557-16.319221 15.571776-20.806385 48.337285-1.948341 14.236341-4.644127 27.294209-5.987036 29.013333-1.345401 1.719124-3.199066 6.632331-4.123406 10.912701-2.376876 11.037275-17.933703 46.633109-34.601733 79.189333-15.910618 31.073791-15.372457 36.036827 3.904156 36.051776 6.213762 0.007474 28.116399 2.805411 48.671144 6.221236 45.489518 7.559163 55.599961 7.73855 61.126073 1.07383 2.351961-2.832818 8.944428-7.105713 14.649927-9.490063 13.728078-5.737888 32.267212-0.43601 77.584817 22.189158 18.424526 9.19856 40.50655 19.822248 49.072273 23.604321 31.245703 13.805314 35.727883 16.301781 34.07852 18.967669-2.043017 3.303708-45.74365 16.563387-71.425868 21.67093-36.221197 7.202881-76.174637-0.969187-99.938414-20.442628l-13.252204-10.857888h-63.064448c-34.686443 0-71.964029-1.549703-82.839358-3.443231-18.813197-3.276302-20.260749-3.074491-29.840506 4.150812-45.663922 34.444769-120.876847 55.21129-200.302871 55.303475-22.4109 0.024915-41.59782-0.802258-42.636769-1.843699z m59.177733-216.55233c11.66762-7.210355 22.647591-28.071552 22.647591-43.025441 0-14.161596-11.954141-37.275095-22.807046-44.094287-12.20329-7.67128-34.688934-6.614891-46.56584 2.190015-10.546453 7.813294-20.965839 28.853878-20.856214 42.106082 0.04983 5.810141 3.238929 16.72035 7.090764 24.249616 12.195815 23.845995 38.760019 32.003114 60.490745 18.574015z m-174.44874-38.348925c16.877314-19.617946 15.472117-50.178491-3.024662-65.740302-12.387659-10.42437-35.82256-10.728331-44.796885-0.583007-10.454268 11.824584-16.687961 23.559474-16.687961 31.417616 0 13.954803 11.769771 35.194706 22.54544 40.683445 14.15163 7.207864 33.032097 4.609246 41.964068-5.777752z" p-id="1725" data-spm-anchor-id="a313x.7781069.0.i4" class=""></path></svg>