<?xml version="1.0" standalone="no"?><!DOCTYPE svg PUBLIC "-//W3C//DTD SVG 1.1//EN" "http://www.w3.org/Graphics/SVG/1.1/DTD/svg11.dtd"><svg t="1556780498281" class="icon" style="" viewBox="0 0 1186 1024" version="1.1" xmlns="http://www.w3.org/2000/svg" p-id="7903" xmlns:xlink="http://www.w3.org/1999/xlink" width="231.640625" height="200"><defs><style type="text/css"></style></defs><path d="M692.331789 0 493.352421 0C493.352421 0 431.157895 0 431.157895 67.368421L431.157895 161.684211 59.284211 161.684211C59.284211 161.684211 0 161.684211 0 222.908632L0 431.157895l431.157895 0 53.894737 0L485.052632 406.312421C485.052632 390.090105 498.095158 377.263158 514.101895 377.263158l157.426526 0C687.804632 377.263158 700.631579 390.305684 700.631579 406.312421L700.631579 431.157895l53.894737 0 431.157895 0L1185.684211 222.908632C1185.684211 161.684211 1126.4 161.684211 1126.4 161.684211L754.526316 161.684211 754.526316 67.368421C754.526316 0 692.331789 0 692.331789 0zM703.595789 161.684211 485.645474 161.684211 485.645474 52.762947l217.896421 0L703.541895 161.684211z" p-id="7904"></path><path d="M0 964.122947C0 1024 59.284211 1024 59.284211 1024l1067.115789 0c0 0 59.284211 0 59.284211-59.877053L1185.684211 485.052632l-429.756632 0L700.631579 485.052632l0 78.740211C700.631579 580.015158 687.642947 592.842105 671.582316 592.842105L514.101895 592.842105C497.879579 592.842105 485.052632 579.799579 485.052632 563.792842L485.052632 485.052632 431.427368 485.052632 0 485.052632 0 964.122947z" p-id="7905"></path><path d="M538.947368 431.157895l107.789474 0 0 107.789474-107.789474 0 0-107.789474Z" p-id="7906"></path></svg>