<?xml version="1.0" standalone="no"?><!DOCTYPE svg PUBLIC "-//W3C//DTD SVG 1.1//EN" "http://www.w3.org/Graphics/SVG/1.1/DTD/svg11.dtd"><svg t="1556779767912" class="icon" style="" viewBox="0 0 1024 1024" version="1.1" xmlns="http://www.w3.org/2000/svg" p-id="5386" xmlns:xlink="http://www.w3.org/1999/xlink" width="200" height="200"><defs><style type="text/css"></style></defs><path d="M783.296381 356.573091l-545.489742 0c-66.204841 0-116.883057 50.67617-116.883057 116.883057l0 233.764068 155.86079 0 0 155.859767 467.529159 0 0-155.859767 155.864884 0 0-233.764068C900.178415 407.250284 849.496106 356.573091 783.296381 356.573091M666.413324 785.180799l-311.664276 0 0-194.787358 311.664276 0L666.413324 785.180799zM783.296381 512.432859c-23.39892 0-38.983873-15.578814-38.983873-38.97671 0-23.401989 15.58393-38.925544 38.983873-38.925544 23.397896 0 38.921451 15.523555 38.921451 38.925544C822.217832 496.854045 806.694277 512.432859 783.296381 512.432859M744.312508 161.786757l-467.529159 0 0 155.862837 467.529159 0L744.312508 161.786757z" p-id="5387"></path></svg>