<?xml version="1.0" standalone="no"?><!DOCTYPE svg PUBLIC "-//W3C//DTD SVG 1.1//EN" "http://www.w3.org/Graphics/SVG/1.1/DTD/svg11.dtd"><svg t="1556978759042" class="icon" style="" viewBox="0 0 1280 1024" version="1.1" xmlns="http://www.w3.org/2000/svg" p-id="1993" xmlns:xlink="http://www.w3.org/1999/xlink" width="250" height="200"><defs><style type="text/css"></style></defs><path d="M1225.4 438c0-41 6.4-65.2 6.4-109.2 0-68.4-25.2-90.4-81-90.4h-41v48.4h12.6c28.4 0 34.6 9.4 34.6 44.2 0 32.6-3.2 65.2-3.2 103 0 48.4 15.8 67.2 47.2 74.6v3.2c-31.6 7.4-47.2 26.2-47.2 74.6 0 37.8 3.2 68.4 3.2 103 0 35.8-7.4 45.2-34.6 45.2v1h-12.6V786h41c55.6 0 81-22 81-90.4 0-45.2-6.4-68.4-6.4-109.2 0-22 13.6-45.2 54.6-47.2v-54.6c-41-1.4-54.6-24.6-54.6-46.6z" p-id="1994"></path><path d="M167.623 237.833l-37.223 0.367c-56.797 0.56-82 22-82 90.4 0 45.2 6.4 70.4 6.4 109.2 0 22-13.6 45.2-54.6 47.2v54.6c41 1 54.6 24.2 54.6 46.2 0 38.8-6.4 62-6.4 107.2 0 68.4 25.2 90.4 81 90.4h41V735h-12.6c-26.2 0-34.6-10.6-34.6-45.2s3.2-64.2 3.2-103c0-48.4-15.8-67.2-47.2-74.6V509c31.6-7.4 47.2-26.2 47.2-74.6 0-37.8-3.2-68.4-3.2-103 0-34.6 7.4-44.2 34.6-44.2h10.21z" p-id="1995"></path><path d="M384.866 544.543q0 34.8-31.2 56.2-31.2 21.2-85.4 21.2-30 0-54.4-5.6t-39.2-12.4v-59.2h6.6q5.4 3.8 12.4 8.4 7.2 4.4 20.2 9.6 11.2 4.6 25.4 8 14.2 3.2 30.4 3.2 21.2 0 31.4-4.6 10.2-4.8 10.2-14 0-8.2-6-11.8-6-3.8-22.8-7.2-8-1.8-21.8-3.8-13.6-2.2-24.8-5.2-30.6-8-45.4-24.8-14.8-17-14.8-42.2 0-32.4 30.6-53.8 30.8-21.6 84-21.6 25.2 0 48.2 5.2 23.2 5 36.2 10.8v56.8h-6.2q-16-11-36.6-17.8-20.4-7-41.4-7-17.4 0-29.4 4.8-11.8 4.8-11.8 13.6 0 8 5.4 12.2 5.4 4.2 25.4 8.4 11 2.2 23.6 4.4 12.8 2 25.6 5.2 28.4 7.4 42 23.4 13.6 15.8 13.6 39.6z" p-id="1996"></path><path d="M549.866 621.743q-29.4 0-53.8-7-24.2-7-42.2-21.6-17.8-14.6-27.6-36.8-9.8-22.2-9.8-52 0-31.4 10.4-54.2 10.6-22.8 29.4-37.8 18.2-14.2 42-20.8 23.8-6.6 49.4-6.6 23 0 42.4 5t36.2 13v61.4h-10.2q-4.2-3.6-10.2-8.4-5.8-4.8-14.4-9.4-8.2-4.4-18-7.2-9.8-3-22.8-3-28.8 0-44.4 18.4-15.4 18.2-15.4 49.6 0 32.4 15.8 49.2 16 16.8 45.2 16.8 13.6 0 24.4-3 11-3.2 18.2-7.4 6.8-4 12-8.4t9.6-8.6h10.2v61.4q-17 8-35.6 12.6-18.4 4.8-40.8 4.8z" p-id="1997"></path><path d="M868.866 544.543q0 34.8-31.2 56.2-31.2 21.2-85.4 21.2-30 0-54.4-5.6t-39.2-12.4v-59.2h6.6q5.4 3.8 12.4 8.4 7.2 4.4 20.2 9.6 11.2 4.6 25.4 8 14.2 3.2 30.4 3.2 21.2 0 31.4-4.6 10.2-4.8 10.2-14 0-8.2-6-11.8-6-3.8-22.8-7.2-8-1.8-21.8-3.8-13.6-2.2-24.8-5.2-30.6-8-45.4-24.8-14.8-17-14.8-42.2 0-32.4 30.6-53.8 30.8-21.6 84-21.6 25.2 0 48.2 5.2 23.2 5 36.2 10.8v56.8h-6.2q-16-11-36.6-17.8-20.4-7-41.4-7-17.4 0-29.4 4.8-11.8 4.8-11.8 13.6 0 8 5.4 12.2 5.4 4.2 25.4 8.4 11 2.2 23.6 4.4 12.8 2 25.6 5.2 28.4 7.4 42 23.4 13.6 15.8 13.6 39.6z" p-id="1998"></path><path d="M1112.066 544.543q0 34.8-31.2 56.2-31.2 21.2-85.4 21.2-30 0-54.4-5.6t-39.2-12.4v-59.2h6.6q5.4 3.8 12.4 8.4 7.2 4.4 20.2 9.6 11.2 4.6 25.4 8 14.2 3.2 30.4 3.2 21.2 0 31.4-4.6 10.2-4.8 10.2-14 0-8.2-6-11.8-6-3.8-22.8-7.2-8-1.8-21.8-3.8-13.6-2.2-24.8-5.2-30.6-8-45.4-24.8-14.8-17-14.8-42.2 0-32.4 30.6-53.8 30.8-21.6 84-21.6 25.2 0 48.2 5.2 23.2 5 36.2 10.8v56.8h-6.2q-16-11-36.6-17.8-20.4-7-41.4-7-17.4 0-29.4 4.8-11.8 4.8-11.8 13.6 0 8 5.4 12.2 5.4 4.2 25.4 8.4 11 2.2 23.6 4.4 12.8 2 25.6 5.2 28.4 7.4 42 23.4 13.6 15.8 13.6 39.6z" p-id="1999"></path></svg>